<?xml version="1.0" encoding="UTF-8"?>
<svg id="Lag_1" data-name="Lag 1" xmlns="http://www.w3.org/2000/svg" viewBox="0 0 128.34 36.28">
  <defs>
    <style>
      .cls-1 {
        fill: #e7e6e6;
      }

      .cls-1, .cls-2, .cls-3, .cls-4, .cls-5 {
        stroke: #010101;
        stroke-miterlimit: 10;
        stroke-width: .3px;
      }

      .cls-6 {
        fill: #75383c;
      }

      .cls-2 {
        fill: #cdcccc;
      }

      .cls-3 {
        fill: #343434;
      }

      .cls-4 {
        fill: #30358c;
      }

      .cls-5 {
        fill: #28285b;
      }
    </style>
  </defs>
  <g>
    <path class="cls-6" d="M5.61,21.83h0c5.72-5.35,17.6-14.13,21.05-17.65.58-.29,1.33-.45,2.09-.45l7.39-.07c.13,0,.2.09.11.14l-14.64,14c-.06.03-.06.08,0,.12l18.85,14.78c.09.05,0,.14-.11.14h-6.25c-.58,0-1.13-.14-1.51-.39l-14.77-11.71s-.47-.43-.53-.4l-11.5,8.37s.02-1.46.02-1.43l-.09,5.77-.07-3.73-.04-7.49.21-17.66-.21,17.66h0Z"/>
    <path class="cls-6" d="M62.34,32l-1.47-.04c-.8,0-1.45-.37-1.44-.84l.31-20.76h-.21l-10.23,17.26c-.18.35-.74.6-1.38.6h-1.36c-.64,0-1.21-.24-1.39-.6l-10.57-17.29h-.21l.14,14.37c.07,2.33-1.64,1.13-2.52.55l-1.97-1.3c-.23-.15-.35-.35-.35-.55v-11.97c0-.22.15-.43.43-.59l4.56-4.3c.78-.45,2.1-.24,2.4.37l10.03,15.17h.21l7.78-14.57c.3-.62,1.28-1.05,2.39-1.05l4.6.04c.8,0,1.45.37,1.44.83l-.6,23.84c0,.3-.16.56-.48.79h0l-.09.03h-.02Z"/>
    <g id="pind">
      <path class="cls-4" d="M4.94,1.83v.61H.82v-.63C.82.9,1.63.15,2.63.15h.49c1.01,0,1.82.75,1.82,1.68h0Z"/>
      <path class="cls-5" d="M5.62,2.63v30.61c0,.1-.11.19-.25.19H.4c-.14,0-.25-.08-.25-.19V2.63c0-.1.11-.19.25-.19h4.97c.14,0,.25.08.25.19h0Z"/>
      <rect class="cls-1" x=".15" y="7.44" width="5.47" height="20.74"/>
      <path class="cls-4" d="M3.39,2.44h1.56v9.07c0,.13-.15.24-.34.24h-.88c-.19,0-.34-.11-.34-.24V2.44h0Z"/>
      <polygon class="cls-2" points="3.38 35.72 2.49 35.72 .45 33.43 5.32 33.43 3.38 35.72"/>
      <path class="cls-3" d="M3.06,36.13h-.21c-.08,0-.13-.04-.13-.1l-.13-.32h.71l-.09.32s-.06.1-.13.1h-.02Z"/>
    </g>
  </g>
  <g>
    <path class="cls-6" d="M76.58,25.82c0,4.6-2.96,6.43-5.69,6.43-3.18,0-5.56-2.31-5.56-6.26s2.49-6.41,5.74-6.41,5.52,2.46,5.52,6.24h0ZM68.33,25.92c0,2.25.92,4.15,2.65,4.15,1.63,0,2.58-1.91,2.58-4.18,0-1.87-.68-4.13-2.58-4.13s-2.65,2.21-2.65,4.16Z"/>
    <path class="cls-6" d="M78.96,23.39c0-1.4-.05-2.5-.1-3.56h2.58l.15,1.71h.06c.55-.95,1.78-1.96,3.58-1.96,2.09,0,3.96,1.43,3.96,4.97v7.45h-2.96v-7.12c0-1.59-.53-2.87-2.05-2.87-1.06,0-1.83.76-2.12,1.71-.09.26-.14.64-.14,1.02v7.27h-2.96v-8.61h0Z"/>
    <path class="cls-6" d="M92.04,29.26c.61.38,1.79.81,2.8.81,1.23,0,1.83-.55,1.83-1.37s-.46-1.25-1.84-1.83c-2.21-.89-3.1-2.15-3.09-3.53,0-2.13,1.7-3.76,4.35-3.76,1.23,0,2.28.32,2.96.69l-.59,2.1c-.5-.29-1.35-.65-2.3-.65-1.04,0-1.61.56-1.61,1.28s.5,1.11,1.93,1.73c2.04.84,3.01,1.99,3.02,3.7,0,2.3-1.73,3.79-4.67,3.79-1.32,0-2.59-.33-3.38-.81l.59-2.16h0Z"/>
    <path class="cls-6" d="M105.26,16.41v3.42h2.76v2.19h-2.76v5.65c0,1.49.45,2.13,1.48,2.13.46,0,.81-.05,1.08-.12l.06,2.26c-.44.16-1.18.28-2.09.28-1.05,0-1.94-.33-2.5-.93-.64-.67-.94-1.72-.94-3.38v-5.91h-1.65v-2.19h1.65v-2.7l2.91-.71h0Z"/>
    <path class="cls-6" d="M112.11,26.72c.07,2.36,1.64,3.26,3.44,3.26,1.26,0,2.19-.22,3.01-.52l.43,2.06c-.96.42-2.32.71-3.89.71-3.71,0-5.83-2.39-5.83-6.13s2-6.52,5.52-6.52,4.82,2.97,4.82,5.82c0,.61-.04,1.05-.1,1.33h-7.41,0ZM116.85,24.65c.02-1.38-.52-3.01-2.25-3.01s-2.38,1.71-2.49,3.01h4.74Z"/>
    <path class="cls-6" d="M121.93,23.6c0-1.48-.04-2.7-.1-3.77h2.56l.12,2.17h.08c.56-1.57,1.86-2.42,3.07-2.42.29,0,.46.01.68.06v2.83c-.23-.05-.47-.07-.8-.07-1.3,0-2.29.88-2.57,2.26-.06.28-.09.63-.09,1v6.35h-2.96v-8.4h.01Z"/>
  </g>
</svg>