<?xml version="1.0" encoding="UTF-8"?>
<svg id="Lag_1" xmlns="http://www.w3.org/2000/svg" version="1.1" viewBox="0 0 128.68 38.35">
  <!-- Generator: Adobe Illustrator 30.0.0, SVG Export Plug-In . SVG Version: 2.1.1 Build 123)  -->
  <defs>
    <style>
      .st0, .st1, .st2, .st3, .st4, .st5, .st6, .st7, .st8, .st9 {
        stroke: #000;
        stroke-miterlimit: 10;
      }

      .st0, .st2, .st6, .st8, .st9 {
        stroke-width: .1px;
      }

      .st0, .st5 {
        fill: #2e3192;
      }

      .st1, .st3, .st4, .st5, .st7 {
        stroke-width: .3px;
      }

      .st1, .st6 {
        fill: #ccc;
      }

      .st10 {
        font-family: ArimaKoshi-Bold, 'Arima Koshi';
        font-size: 98.88px;
      }

      .st10, .st11, .st12 {
        isolation: isolate;
      }

      .st10, .st12 {
        font-weight: 700;
      }

      .st2, .st7 {
        fill: #e6e6e6;
      }

      .st3, .st8 {
        fill: #333;
      }

      .st4, .st9 {
        fill: #1b1464;
      }

      .st12 {
        font-family: AdelleSansDevanagari-Bold, 'Adelle Sans Devanagari';
        font-size: 50px;
      }

      .st12, .st13 {
        fill: #74373b;
      }

      .st14 {
        fill: #fff;
      }
    </style>
  </defs>
  <path d="M170.76,277.63c0,4.96-4.41,8.81-10.6,8.81-9.5,0-13.63-9.23-16.53-17.35l-4.68-14.74c-2.34-6.61-5.78-14.19-18.73-14.19h-2.75l.14,25.89c0,5.37-2.95,12.57-1.02,17.53-1.38,1.24.14-34.86,0-40.59-.13-5.09.83,39.53.83,34.57l-.14-71.48c0-5.23-.28-11.16-2.2-16.39,1.38-1.24,2.92,19.04,2.24,35.79-.2,4.95.15-35.87.15-30.77v39.39c1.24-.14,2.48-.41,3.58-.69,17.08-3.44,25.62-21.48,25.62-33.88,0-5.65-1.52-9.23-2.48-10.74,2.2-1.1,3.99-1.65,6.47-1.65,4.82,0,10.88,2.34,10.88,13.08,0,12.81-8.13,27.82-28.1,35.53,11.02,1.24,15.98,6.33,19.14,14.05l6.34,16.25c2.75,6.33,4.27,8.26,7.16,8.54,1.1,0,2.48-.28,3.72-1.38.55,1.65.96,3.03.96,4.41h0Z"/>
  <g>
    <path class="st13" d="M5.61,21.83h0c5.72-5.35,17.6-14.13,21.05-17.65.58-.29,1.33-.45,2.09-.45l7.39-.07c.13,0,.2.09.11.14l-14.64,14c-.06.03-.06.08,0,.12l18.85,14.78c.09.05,0,.14-.11.14h-6.25c-.58,0-1.13-.14-1.51-.39l-14.77-11.71s-.47-.43-.53-.4l-11.5,8.37s.02-1.46.02-1.43l-.09,5.77-.07-3.73-.04-7.49.21-17.66-.21,17.66h0Z"/>
    <path class="st13" d="M62.34,32l-1.47-.04c-.8,0-1.45-.37-1.44-.84l.31-20.76h-.21l-10.23,17.26c-.18.35-.74.6-1.38.6h-1.36c-.64,0-1.21-.24-1.39-.6l-10.57-17.29h-.21l.14,14.37c.07,2.33-1.64,1.13-2.52.55l-1.97-1.3c-.23-.15-.35-.35-.35-.55v-11.97c0-.22.15-.43.43-.59l4.56-4.3c.78-.45,2.1-.24,2.4.37l10.03,15.17h.21l7.78-14.57c.3-.62,1.28-1.05,2.39-1.05l4.6.04c.8,0,1.45.37,1.44.83l-.6,23.84c0,.3-.16.56-.48.79h0l-.09.03h-.02Z"/>
    <g id="pind">
      <path class="st5" d="M4.94,1.83v.61H.82v-.63C.82.9,1.63.15,2.63.15h.49c1.01,0,1.82.75,1.82,1.68h0Z"/>
      <path class="st4" d="M5.62,2.63v30.61c0,.1-.11.19-.25.19H.4c-.14,0-.25-.08-.25-.19V2.63c0-.1.11-.19.25-.19h4.97c.14,0,.25.08.25.19h0Z"/>
      <rect class="st7" x=".15" y="7.44" width="5.47" height="20.74"/>
      <path class="st5" d="M3.39,2.44h1.56v9.07c0,.13-.15.24-.34.24h-.88c-.19,0-.34-.11-.34-.24V2.44h0Z"/>
      <polygon class="st1" points="3.38 35.72 2.49 35.72 .45 33.43 5.32 33.43 3.38 35.72"/>
      <path class="st3" d="M3.06,36.13h-.21c-.08,0-.13-.04-.13-.1l-.13-.32h.71l-.09.32s-.06.1-.13.1h-.02Z"/>
    </g>
  </g>
  <g id="kuglepind1">
    <path class="st5" d="M115.64,175.93v2.14h-10.28v-2.2c0-3.22,2.01-5.82,4.5-5.82h1.23c2.51,0,4.54,2.63,4.54,5.88h0Z"/>
    <path class="st4" d="M117.32,178.73v107.06c0,.36-.28.65-.63.65h-12.38c-.35,0-.63-.29-.63-.65v-107.06c0-.36.28-.65.63-.65h12.38c.35,0,.63.29.63.65h0Z"/>
    <rect class="st7" x="103.68" y="195.55" width="13.64" height="72.54"/>
    <path class="st5" d="M111.74,178.07h3.89v31.77c0,.45-.36.81-.81.81h-2.27c-.45,0-.81-.36-.81-.81v-31.77h0Z"/>
    <polygon class="st1" points="111.74 294.46 109.5 294.46 104.41 286.44 116.57 286.44 111.74 294.46"/>
    <path class="st3" d="M110.94,295.91h-.53c-.18,0-.33-.15-.33-.33l-.34-1.11h1.77l-.23,1.11c0,.18-.15.33-.33.33,0,0-.01,0,0,0Z"/>
  </g>
  <g id="kuglepind2">
    <path class="st0" d="M50.35-268.75v.63h-4.31v-.65c0-.95.85-1.73,1.88-1.73h.51c1.06,0,1.9.78,1.9,1.74h.02Z"/>
    <path class="st9" d="M51.06-267.92v31.79c0,.1-.11.2-.26.2h-5.2c-.15,0-.26-.08-.26-.2v-31.79c0-.1.11-.2.26-.2h5.2c.15,0,.26.08.26.2Z"/>
    <rect class="st2" x="45.34" y="-262.93" width="5.73" height="21.54"/>
    <path class="st0" d="M48.73-268.12h1.64v9.22c0,.25-.36.45-.81.45h0c-.45,0-.81-.2-.81-.45v-9.22s-.02,0-.02,0Z"/>
    <polygon class="st6" points="48.73 -233.56 47.79 -233.56 45.64 -235.94 50.74 -235.94 48.73 -233.56"/>
    <path class="st8" d="M48.39-233.13h-.23s-.13-.04-.13-.1l-.13-.33h.73l-.09.33c0,.05-.06.1-.13.1,0,0-.02,0-.02,0Z"/>
  </g>
  <g id="kuglepind3">
    <path class="st5" d="M1564.73-256.36v4.28h-20.55v-4.39c0-6.44,4.03-11.64,9-11.64h2.46c5.03,0,9.09,5.25,9.09,11.75h0Z"/>
    <path class="st4" d="M1568.1-250.77V-36.64c0,.72-.56,1.3-1.26,1.3h-24.76c-.69,0-1.26-.58-1.26-1.3v-214.13c0-.72.56-1.3,1.26-1.3h24.76c.69,0,1.26.58,1.26,1.3h0Z"/>
    <rect class="st7" x="1540.82" y="-217.12" width="27.28" height="145.08"/>
    <path class="st5" d="M1556.95-252.08h7.79v64.35c0,.45-.36.81-.81.81h-6.16c-.45,0-.81-.36-.81-.81v-64.35h0Z"/>
    <polygon class="st1" points="1556.93 -19.3 1552.46 -19.3 1542.29 -35.34 1566.61 -35.34 1556.93 -19.3"/>
    <path class="st3" d="M1555.34-16.41h-1.06c-.37,0-.67-.3-.67-.67l-.67-2.22h3.53l-.46,2.22c0,.37-.3.67-.67.67h0Z"/>
  </g>
  <g>
    <g>
      <path class="st13" d="M495.54-28.73c1.65.54,2.96,1.64,2.94,3.02-.03,1.48-1.51,2.74-3.17,3.45-1.87.79-4.06,1.07-6.12,1.41-2.48.39-4.96.77-7.45,1.11-2.36.33-4.72.63-7.09.91-1.44.18-3.59.65-4.67-.2.24.02.52-.02.8-.15,1.04-.51,2.09-1,3.13-1.52.22-.02.45-.05.67-.08,1.04-.12,2.08-.25,3.13-.38,2.15-.28,4.3-.57,6.43-.89,1.92-.28,3.84-.58,5.76-.9,1.64-.27,3.49-.54,4.82-1.35,1.15-.7,1.65-1.81.22-2.49-1.51-.72-3.54-.51-5.2-.22-3.35.57-6.35,1.82-9.23,3.17-2.22,1.03-4.42,2.1-6.61,3.15-.33.05-.67.08-1.01.12-.21.02-.42.05-.63.07-.15.02-.31.04-.46.04h-.05c-.84-.69-2.75-.18-2.25.86.12.24.27.43.46.58-1.03-.09-1.65-1.27-.51-1.81,4.45-2.14,8.83-4.51,13.56-6.31,3.57-1.36,8.56-2.86,12.53-1.57v-.02h0Z"/>
      <path class="st13" d="M494.93-26.78c1.42.68.93,1.8-.22,2.49-1.33.81-3.17,1.08-4.82,1.35-1.92.31-3.83.61-5.76.9-2.14.31-4.29.61-6.43.89-1.04.14-2.09.26-3.13.38-.22.02-.45.06-.67.08,2.19-1.06,4.39-2.12,6.61-3.15,2.88-1.35,5.88-2.59,9.23-3.17,1.65-.28,3.69-.5,5.2.22h-.01,0Z"/>
      <path class="st13" d="M459.88,5.15v.02h-.04c-.9.02.09.11.04,0h.02c.51.28.5.75.21,1.11v-.13c-.07-1.23-2.69-1.24-2.62,0v.09c-.45-.44-.59-1.04-.34-1.6.41-.9,1.67-1.29,2.81-1.55,2.99-.7,6.19-.97,9.33-1.06,2.86-.08,5.74.02,8.59.2s5.84.48,8.64-.13c1.79-.4,4.65-1.74,3.5-3.43-.99-1.45-4.3-1.64-6.18-1.83-5.57-.56-11.21-.04-16.74-.91-4.96-.79-9.62-2.43-13.53-4.82-.35-.21-.46-.46-.43-.7,0,.02.03.03.04.05.73.96,2.56.31,2.43-.6,4.37,2.62,9.93,4.2,15.51,4.6,5.51.39,11.17-.15,16.57.96,2.05.42,4.15,1.25,4.9,2.82.74,1.55-.2,3.28-1.83,4.33-4.23,2.72-10.5,1.67-15.56,1.45-2.85-.12-5.73-.14-8.58.06-1.49.11-2.98.29-4.43.55-.61.11-1.25.21-1.84.38-.1.02-.33.11-.45.15h-.03.01,0Z"/>
      <path class="st13" d="M484.77,23.42c2.99,1.12,6.49,3.05,6.15,5.85-.31,2.57-3.89,4.03-7.07,4.2-3.86.21-7.41-1.25-10.26-3.02-3.01-1.88-5.69-4.04-8.78-5.87-2.96-1.75-6.34-2.47-10.01-1.52-3.48.9-5.9,3.08-7.01,5.62-.92,2.1-.71,4.51-2.95,6.09.67-.96-1.44-1.79-2.37-.83-.05.05-.11.1-.16.15.07-.22.23-.42.54-.58,1.47-.76,1.53-2.33,1.81-3.5.33-1.38.93-2.73,1.82-3.96,1.84-2.56,5.1-4.48,8.96-5.13,3.52-.59,6.95,0,9.87,1.52,3.08,1.61,5.76,3.63,8.49,5.53,2.73,1.91,6.08,3.8,10.06,3.57,1.49-.09,3.17-.59,4.03-1.54.95-1.06.18-2.31-.89-3.13-1.25-.96-2.92-1.58-4.53-2.14-1.9-.67-3.8-1.31-5.69-1.96-3.68-1.27-7.64-2.36-11.02-4.03-5.71-2.81-7.96-7.65-8.26-12.51.2.21.48.37.82.48.75.25,1.47-.03,1.8-.44.17,2.69.94,5.4,2.9,7.7,2.37,2.81,6.3,4.1,10.22,5.45,3.85,1.33,7.76,2.59,11.54,4h0Z"/>
      <path class="st13" d="M490.02-1.35c1.15,1.68-1.71,3.03-3.5,3.43-2.81.61-5.79.31-8.64.13-2.85-.18-5.73-.28-8.59-.2-3.13.09-6.33.37-9.33,1.06-1.12.26-2.39.66-2.81,1.55-.25.55-.12,1.16.34,1.6.3,4.86,2.55,9.7,8.26,12.51,3.38,1.67,7.34,2.76,11.02,4.03,1.9.66,3.8,1.3,5.69,1.96,1.61.57,3.28,1.18,4.53,2.14,1.07.83,1.84,2.08.89,3.13-.85.95-2.54,1.45-4.03,1.54-3.99.24-7.33-1.66-10.06-3.57-2.73-1.9-5.41-3.93-8.49-5.53-2.92-1.52-6.36-2.11-9.87-1.52-3.86.64-7.11,2.56-8.96,5.13-.89,1.23-1.48,2.59-1.82,3.96-.28,1.19-.34,2.75-1.81,3.5-.31.15-.47.36-.54.58v.02c-.92.9-2.06,1.67-3.34,2.28-1.16.56-2.54.94-3.5,1.7-2.52,2,.55,4.5,2.54,5.92,2.55,1.84,5.73,2.97,8.56,4.51,1.19.65,2.34,1.42,3.09,2.37.54.68.72,1.45.95,2.22-1.59.11-3.17.15-4.78.11-1.93-.05-4.05-.08-5.51-1.14-1.25-.91-2.19-2.04-3.42-2.98-1.3-.99-2.74-1.87-4.25-2.68-3.09-1.64-6.76-3.22-10.57-3.7-3.62-.45-7.39.31-10.06,2.21-1.4.99-2.43,2.31-2.92,3.7-.27.77-.22,1.66-.34,2.5-.68.1-1.22.53-.89,1.13.56,1.03-2.46,2.18-3.44,2.56-1.76.69-3.61.74-5.47.22-1.76-.5-3.26-1.41-4.74-2.24-1.43-.81-2.9-1.55-4.54-2.12-6.68-2.36-14.68-2.5-21.35-.05-1.76.65-3.21,1.6-4.88,2.35-1.78.82-3.42.66-5.22.2-1.17-1.69-2.04-3.5-3.49-5.08-1.4-1.55-3.33-2.79-5.68-3.49-2.43-.71-4.94-.64-7.3.14-2.53.83-4.91,2.03-7.13,3.22-2.24,1.21-4.22,2.68-6.46,3.87-1,.53-2.08.99-3.26,1.25-.6.14-3.17.62-3.36-.11-.15-.57,1.47-1.67,1.91-2.12.79-.83,1.45-1.71,1.99-2.65,1.03-1.8,1.76-3.88,1-5.81-.81-2.04-2.89-3.8-4.92-5.25-1.3-.93-2.71-1.78-4.15-2.59-.11-.09-.23-.18-.4-.25-.06-.02-.13-.06-.19-.08-.9-.51-1.82-.99-2.73-1.48-.63-.34-1.25-.17-1.59.18-1.56-.21-3.13-.07-4.62.67-1.34.67-2.38,1.52-3.94,1.91-1.35.34-2.89.44-4.26.11-.84-.2-2.03-.69-1.53-1.45.62-.96,2.31-1.31,3.47-1.78,1.12-.47,2.19-1.18,2.24-2.2.04-.73-.43-1.42-1.21-1.8-.21-.21-.54-.36-1.01-.37-4.09-.05-8.3-.09-12.19-1.15-2.83-.76-6.18-2.51-6.46-4.92-.24-2.1,1.64-4.48-.56-6.33-1.19-.99-2.95-1.19-4.64-1.34-2.26-.18-4.51-.36-6.76-.54-1.84-.15-3.86-.3-5.47-1.03-.93-.42-2.01-1.45-1.27-2.28.43-.48,1.38-.57,2.09-.65,1.04-.13,2.1-.22,3.15-.34,2.16-.26,4.31-.59,6.42-.98,2.03-.37,4.06-.81,6.06-1.31,1.78-.44,3.91-.82,5.47-1.62,3.88-2-2.02-4.38-4.13-5.26-6.72-2.82-14.55-4.26-22.28-4.24-4.31.02-8.59.63-12.89.35-1.75-.11-3.55-.43-5.13-1.03-.69-.26-1.35-.56-1.93-.95-.35-.24-1.48-1.01-1.33-1.4.12-.28,1.47-.37,1.8-.41,1.21-.15,2.43-.27,3.64-.38,2.18-.21,4.35-.39,6.54-.54,4.45-.3,8.91-.47,13.38-.51,4.46-.04,8.93.06,13.39.28,3.53.18,7.53.85,10.99.04,3.34-.79,4.99-3.14,3.72-5.58-1.38-2.65-4.96-3.88-7.62-5.72-1.22-.85-2.31-1.87-.94-2.97,1.3-1.03,3.37-1.27,5.19-1.35,4.43-.21,8.92-.13,13.36-.18,2.25-.02,4.51-.05,6.74-.08.48,0,.82-.16,1.03-.38,4.03-.49,7.77-2.69,8.8-5.67,1.13-3.27-1.26-6.58-4.78-8.52-3.97-2.2-9.06-2.69-13.26-4.54-2.78-1.22-6.72-4.87-2.55-6.68,3.91-1.69,8.65.17,11.58,2.15,1.74,1.18,3.32,2.49,5.07,3.66,1.7,1.16,3.52,2.23,5.44,3.18,7.57,3.73,17.28,5.3,25.68,2.11,3.99-1.51,7.1-4.09,7.51-7.46.24-2.02-.74-4.5.64-6.37.87-1.19,2.9-2.37,4.84-2.05.58,3.2,1.64,6.64,4.98,8.88,4.6,3.06,10.94,2.36,16.33,1.06,3.17-.77,6.29-1.65,9.5-2.33,3.19-.67,6.67-1.48,10.03-1.42,1.38.02,2.82.25,3.89.94.71.46,1.39,1.2.95,1.91-.74,1.19-3.12,1.74-4.48,2.44-1.78.92-3.13,2.45-1.72,3.99,1.05,1.16,3.08,1.53,5.02,1.61h.04c9.69,1.05,20.05-2,24.79-8.51,1.19-1.62,2.15-3.36,3.66-4.84,1.34-1.32,3.53-2.84,5.96-2.42,2.11.36,3.45,2.02,3.64,3.53.21,1.81-.72,3.64-2.33,5-2.79,2.33-9.42,3.61-7.88,7.61.39,1,1.16,1.95,1.79,2.88.71,1.05,1.41,2.1,2.08,3.16,1.21,1.92,2.28,3.9,2.99,5.97.67,2,.63,3.9.67,5.95.04,1.62.5,3.34,2.43,4.32,2.09,1.07,4.8.8,6.99.05,2.48-.85,4.17-2.55,6.6-3.45,1.47-.54,3.16-.81,4.77-.95,1.45-.13,3.09-.18,4.42.31.98.37,1.96,1.19,1.08,1.94-.79.67-2.28.93-3.43,1.05-2.89.3-6.09.06-8.4,1.64-1.88,1.28-2.37,3.34-1.17,4.99-.04.24.08.49.43.7,3.9,2.39,8.56,4.03,13.53,4.82,5.51.87,11.17.35,16.74.91,1.89.18,5.2.38,6.18,1.83v.06h0Z"/>
      <path class="st13" d="M472.9-20.57c.33-.04.67-.08,1.01-.12-1.04.51-2.09,1.01-3.13,1.52-.28.14-.56.18-.8.15-.19-.15-.35-.34-.46-.58-.49-1.03,1.41-1.55,2.25-.86-.24,0-.15.11.27.34-.06-.14-.15-.25-.27-.34h.05c.15,0,.31-.02.46-.04.21-.02.42-.05.63-.07,0,0-.01,0-.01,0Z"/>
      <path class="st13" d="M471.75-20.47c.12.09.21.21.27.34-.43-.23-.51-.34-.27-.34Z"/>
      <path class="st13" d="M468.88-18.87c.85,1.71-.75,3.24-2.81,3.92-2.52.83-5.22.54-7.83,1.01-2.05.37-4.01,1.78-2.8,3.41.1.13.15.26.16.38-.06-.04-.13-.07-.18-.11-.94-.58-2.2,0-2.28.67-1.21-1.66-.71-3.71,1.17-4.99,2.31-1.58,5.51-1.34,8.4-1.64,1.13-.12,2.63-.37,3.43-1.05.88-.75-.11-1.57-1.08-1.94-1.34-.51-2.98-.44-4.42-.31-1.61.14-3.3.41-4.77.95-2.43.9-4.12,2.6-6.6,3.45-2.19.75-4.9,1.03-6.99-.05-1.92-.99-2.39-2.69-2.43-4.32-.04-2.04,0-3.95-.67-5.95-.7-2.07-1.77-4.05-2.99-5.97-.67-1.06-1.37-2.11-2.08-3.16-.63-.93-1.4-1.88-1.79-2.88-1.55-3.99,5.09-5.27,7.88-7.61,1.62-1.35,2.54-3.19,2.33-5-.18-1.51-1.53-3.17-3.64-3.53-2.43-.42-4.62,1.11-5.96,2.42-1.51,1.48-2.47,3.21-3.66,4.84-4.75,6.5-15.09,9.56-24.79,8.51.74.02,1.46.02,2.1-.02,1.27-.06,1.58-1.18.93-1.68,4.78.13,9.64-.89,13.6-2.85,2.24-1.11,4.06-2.56,5.42-4.29,1.37-1.74,2.37-3.63,3.95-5.28,1.44-1.52,3.42-2.97,5.9-3.47,2.36-.47,4.81.11,6.47,1.41,3.46,2.71,2.72,6.95-.15,9.73-1.55,1.49-3.64,2.38-5.68,3.44-.82.43-1.78.96-2.16,1.68-.49.95.45,2,1,2.82,2.64,3.91,5.49,7.93,6.38,12.3.22,1.09.31,2.17.28,3.26-.03.75-.09,1.52.06,2.27.15.77.55,1.52,1.55,1.88,1.1.39,2.43.22,3.52-.09,2.54-.72,4.24-2.46,6.6-3.41,2.44-.99,5.54-1.47,8.32-1.42,2.52.04,5.4.78,6.34,2.67h-.03Z"/>
      <path class="st13" d="M460.1,6.13v.13c-.33.41-1.04.7-1.8.44-.34-.11-.62-.28-.82-.48v-.09c-.07-1.24,2.55-1.23,2.62,0Z"/>
      <path class="st13" d="M459.91,5.16h-.02v-.02h.03v.02h-.01Z"/>
      <path class="st13" d="M455.62-10.16c.14.91-1.7,1.55-2.43.6,0-.02-.03-.03-.04-.05.08-.66,1.34-1.24,2.28-.67.06.04.13.07.18.11h.01Z"/>
      <path class="st13" d="M453.45,53.45c.46.71-.12,1.35-1.12,1.45-.35.03-.7.06-1.04.09l-.09-.57c.38-.49.75-.97,1.13-1.45-.57.06-1.13.1-1.71.14-.23-.77-.41-1.54-.95-2.22-.75-.96-1.91-1.72-3.09-2.37-2.83-1.55-6.02-2.68-8.56-4.51-1.98-1.42-5.05-3.92-2.54-5.92.96-.76,2.34-1.14,3.5-1.7,1.28-.61,2.42-1.39,3.34-2.28-.23.75.78,1.64,1.86,1.07.25-.13.48-.27.68-.41-.03.05-.07.1-.12.14-1.75,1.8-3.94,2.88-6.47,4.01-.51.22-1.13.48-1.12.97.02.54.74,1.12,1.16,1.51.97.87,2.09,1.68,3.29,2.37,2.54,1.46,5.51,2.45,7.92,4.04,1,.67,1.93,1.44,2.55,2.32.75,1.06.69,2.27,1.37,3.33h.01Z"/>
      <path class="st13" d="M452.33,52.98c-.39.48-.76.96-1.13,1.45-.27-.42-.44-.87-.58-1.32.58-.03,1.14-.08,1.71-.14h0Z"/>
      <path class="st13" d="M451.18,54.43l.09.57c-2.02.16-4.04.21-6.07.14-2.02-.07-4.16-.21-5.84-1.12-1.33-.73-2.18-1.76-3.23-2.67-1.16-1.01-2.48-1.93-3.89-2.75-2.81-1.63-6.21-3.16-9.69-3.82-3.45-.65-7.29.08-9.5,2.23-1.01.97-1.57,2.15-1.67,3.37-.11,1.21-.09,2.43-1.09,3.46-.13.14-.29.23-.45.3.69-.67,1.04-1.48.57-2.35-.29-.54-1.03-.71-1.64-.62.13-.84.07-1.73.34-2.5.49-1.39,1.52-2.7,2.92-3.7,2.67-1.9,6.44-2.66,10.06-2.21,3.8.47,7.47,2.06,10.57,3.7,1.51.8,2.95,1.68,4.25,2.68,1.23.94,2.17,2.07,3.42,2.98,1.46,1.06,3.58,1.09,5.51,1.14,1.6.05,3.18,0,4.78-.11.14.44.31.9.58,1.32l-.03-.02v-.02h.01Z"/>
      <path class="st13" d="M442.48,33.94c.94-.96,3.04-.13,2.37.83-.2.14-.43.28-.68.41-1.07.56-2.1-.32-1.86-1.07v-.02c.06-.05.12-.1.16-.15h.01,0Z"/>
      <path class="st13" d="M444.12-68.4c.79,1.22.65,2.59.14,3.85-.85,2.09-2.18,4.25-4.21,5.88l-.58-.28c-.22-.54-.46-1.06-.74-1.58,1.13-1.09,1.93-2.36,2.59-3.67.44-.86.94-1.86.69-2.8-.26-.98-1.23-1.48-2.55-1.35h-.17.02c.17-.05.34-.12.47-.21,0,.06.03.12.04.18.37-.1.59-.13.93.02,1.27.58,2.45-.67,1.71-1.41.7.33,1.28.8,1.65,1.37h0Z"/>
      <path class="st13" d="M442.47-69.77c.74.75-.45,1.99-1.71,1.41-.33-.15-.56-.13-.93-.02,0-.06-.03-.12-.04-.18.39-.23.59-.58.45-.98-.1-.26-.4-.51-.75-.63h0s0-.08-.02-.11c1.06-.1,2.11.1,2.98.51h.02,0Z"/>
      <path class="st13" d="M442.08-70.03c.15.07.29.16.38.25-.86-.41-1.92-.6-2.98-.51,0,.03,0,.07.02.1-.11-.04-.22-.06-.33-.08.94-.28,2.05-.17,2.91.22h0v.02Z"/>
      <path class="st13" d="M442.03-67c.24.94-.25,1.94-.69,2.8-.67,1.31-1.46,2.58-2.59,3.67-.27-.52-.57-1.03-.88-1.54-.57-.91-1.51-1.84-1.65-2.86-.21-1.48,1.3-2.89,3.1-3.42h.17c1.32-.12,2.28.37,2.55,1.35h-.01Z"/>
      <path class="st13" d="M440.24-69.54c.15.4-.06.75-.45.98-.11-.54-.2-1.07-.3-1.6.35.12.65.37.75.63h0Z"/>
      <path class="st13" d="M439.48-58.95l.58.28c-.29.23-.59.46-.92.67-.74.47-1.9.3-2.19-.43-.51-1.25-1.18-2.45-1.99-3.6-.75-1.06-1.47-2.15-1.38-3.37.17-2.24,2.3-3.99,5.05-4.8.17-.05.35-.06.53-.04h-.04c-.61.18-1.04.55-.94,1.06.08.38.54.81,1.12.83-1.8.54-3.31,1.94-3.1,3.42.15,1.03,1.09,1.96,1.65,2.86.31.51.61,1.02.88,1.54-.44.41-.92.8-1.46,1.16.74.14,1.46.28,2.19.42h.02Z"/>
      <path class="st13" d="M439.5-70.17c.1.54.19,1.07.3,1.6-.13.09-.3.16-.47.21h-.02c-.58-.02-1.04-.45-1.12-.83-.11-.51.33-.88.94-1.06h.04c.12.02.22.04.33.08h0Z"/>
      <path class="st13" d="M439.48-58.95c-.74-.14-1.46-.28-2.19-.42.54-.35,1.03-.74,1.46-1.16.27.51.51,1.04.74,1.58h-.01,0Z"/>
      <path class="st13" d="M410.4,51.76c.48.87.13,1.68-.57,2.35h0c-1.07.43-2.66-.41-1.81-1.28.47-.49.66-1.08.75-1.69.61-.1,1.34.08,1.64.62h-.01Z"/>
      <path class="st13" d="M408.03,52.83c-.85.87.74,1.71,1.81,1.28-.6.6-1.46,1.11-2.22,1.52-1.79.95-3.83,1.72-6.1,1.73-4.39.02-7.32-2.39-10.76-4.01-3.49-1.66-7.64-2.56-11.79-2.58-4.04-.02-8.11.79-11.48,2.46-1.53.76-2.89,1.68-4.67,2.1-1.93.47-3.85.12-5.68-.37.89.03,1.85-.67,1.3-1.45-.08-.1-.15-.21-.22-.31,1.81.46,3.44.62,5.22-.2,1.66-.75,3.12-1.7,4.88-2.35,6.68-2.45,14.68-2.32,21.35.05,1.64.58,3.11,1.32,4.54,2.12,1.47.83,2.98,1.75,4.74,2.24,1.86.51,3.71.47,5.47-.22.99-.38,4.01-1.54,3.44-2.56-.33-.6.21-1.03.89-1.13-.09.61-.27,1.2-.75,1.69h.03Z"/>
      <path class="st13" d="M403.26-50.4c3.07.55,6.36,2.95,4.69,5.43-1.2,1.78-4.01,2.23-5.88,3.46-.73.47-.83.99.13,1.36,1.29.51,2.99.45,4.4.38.41-.02.72.08.93.24-.87-.02-1.74-.08-2.59-.18-1.64-.19-2.36,1.67-.69,1.86.07,0,.15.02.22.02-1.93-.08-3.97-.44-5.02-1.61-1.4-1.55-.06-3.08,1.72-3.99,1.36-.7,3.74-1.25,4.48-2.44.45-.7-.24-1.45-.95-1.91-1.06-.69-2.5-.91-3.89-.94-3.36-.06-6.83.75-10.03,1.42-3.21.67-6.32,1.55-9.5,2.33-5.4,1.3-11.75,2-16.33-1.06-3.35-2.24-4.41-5.68-4.98-8.88.17.02.35.07.51.12-.21-.28-.43-.55-.65-.83l.98-1.16c.41.08.79.21,1.12.39.67.37.58,1.16.69,1.72.12.55.24,1.11.4,1.66.63,2.14,1.7,4.38,4.09,5.8,3.08,1.84,7.26,1.62,10.87.93,4.24-.81,8.27-2.1,12.49-2.97,4-.83,8.64-1.92,12.8-1.16h0Z"/>
      <path class="st13" d="M407.51-39.52c.66.51.34,1.63-.93,1.68-.65.03-1.37.05-2.1.02h-.04c-.07,0-.15-.02-.22-.02-1.66-.19-.95-2.05.69-1.86.85.1,1.72.16,2.59.18h.01Z"/>
      <path class="st13" d="M360.79-56.76l-.98,1.16c.04.23.08.47.13.7-1.93-.32-3.97.87-4.84,2.05-1.37,1.87-.4,4.35-.64,6.37-.41,3.37-3.52,5.96-7.51,7.46-8.4,3.18-18.1,1.62-25.68-2.11-1.92-.95-3.73-2.02-5.44-3.18-1.75-1.18-3.33-2.49-5.07-3.66-2.93-1.98-7.67-3.84-11.58-2.15-4.17,1.81-.22,5.46,2.55,6.68,4.22,1.84,9.31,2.34,13.26,4.54,3.52,1.94,5.91,5.26,4.78,8.52-1.04,2.98-4.78,5.18-8.8,5.67.53-.57.19-1.55-1.03-1.55h-.68c.15-.15.4-.25.75-.29,1.65-.18,3.24-.6,4.56-1.39,2.67-1.6,3.6-4.12,2.19-6.46-1.62-2.69-5.22-4.02-8.75-5.01-3.46-.98-7.24-1.79-9.99-3.72-2.2-1.55-4.06-4-2.9-6.27,1.21-2.38,4.75-3.34,7.97-3.25,3.72.11,6.86,1.49,9.55,3.3,2.82,1.91,5.31,4.03,8.42,5.72,3.07,1.68,6.46,3.05,10.16,3.82,6.22,1.27,14.05.59,18.53-3.17.93-.78,1.61-1.71,1.93-2.71.49-1.52.13-3.11.15-4.66.06-2.72,1.65-5.21,5.28-6.23,1.04-.29,2.49-.44,3.69-.2v.02s-.01,0-.01,0Z"/>
      <path class="st13" d="M359.81-55.62c.22.28.44.55.65.83-.16-.05-.34-.1-.51-.12-.05-.24-.1-.47-.13-.7h-.01,0Z"/>
      <path class="st13" d="M358.45,53.5c.55.78-.41,1.48-1.3,1.45-.13-.04-.27-.08-.4-.11s-.22-.08-.32-.13c-.09-.06-.16-.14-.23-.24-.11-.15-.21-.3-.31-.45-.12-.64.53-1.34,1.56-1.05.27.08.53.15.79.21.07.11.14.21.22.31h-.01Z"/>
      <path class="st13" d="M358.23,53.18c-.26-.06-.52-.14-.79-.21-1.03-.29-1.67.41-1.56,1.05-2.29-3.37-4.55-8.35-10.83-7.98-1.38.08-2.63.6-3.83,1.09-1.2.51-2.37,1.04-3.52,1.61-2.31,1.15-4.37,2.46-6.49,3.78-1.95,1.2-4.12,2.29-6.67,2.63-2.18.29-5.31.14-5.58-1.92-.12-.91.48-1.66,1.22-2.36.82-.77,1.59-1.53,2.21-2.4,1.17-1.6,2.25-3.73,1.52-5.55-.72-1.8-2.71-3.34-4.51-4.59-1.25-.87-2.58-1.68-3.96-2.44.08.02.15.06.22.09,1.3.56,2.47-.68,1.72-1.42,1.44.81,2.84,1.66,4.15,2.59,2.02,1.45,4.1,3.21,4.92,5.25.76,1.93.04,4.02-1,5.81-.54.93-1.2,1.83-1.99,2.65-.43.45-2.06,1.55-1.91,2.12.19.73,2.76.24,3.36.11,1.18-.27,2.26-.73,3.26-1.25,2.24-1.19,4.22-2.66,6.46-3.87,2.23-1.19,4.61-2.39,7.13-3.22,2.37-.79,4.88-.86,7.3-.14,2.36.7,4.28,1.94,5.68,3.49,1.45,1.58,2.32,3.39,3.49,5.08h0Z"/>
      <path class="st13" d="M356.75,54.84c.13.04.27.08.4.11-.26-.02-.51-.08-.73-.24.1.05.2.1.32.13h.01Z"/>
      <path class="st13" d="M356.19,54.47c.07.1.15.18.23.24-.33-.17-.49-.42-.55-.69.11.15.21.31.31.45h.01,0Z"/>
      <path class="st13" d="M312.04,57.18s-.04.02-.05.02h0c-.19.11-.36.24-.53.35-.16.11-.32.22-.47.34-.09.06-.16.13-.24.2-.03.02-.04.04-.05.05-.08.08-.15.17-.22.26,0,0-.03.05-.04.07-.02.06-.04.16-.06.21v.02c0,.08.02.18,0,.18.02.08.04.16.09.23h0v.02s.09.14.1.15c.04.05.1.1.14.16,0,0,.04.05.07.06h0l.02.02s.08.06.13.1c.06.05.13.1.19.14,0,0,.04.02.05.04.02,0,.03.02.04.02h0c.13.08.27.14.42.2.53.22,1.38.37,1.96.41.78.04,1.6.02,2.3-.11.21-.05.23-.05.44-.14.05-.02.12-.05.16-.08h.02s.03-.02.04-.02c-.02,0-.03.02-.04.02.02-.02.07-.05.08-.06l.18-.14s.04-.03.05-.04h0s.08-.1.13-.15c0,0,.08-.11.13-.16h0v-.02c.23-.4.23-.78,0-1.22-.04-.05-.09-.14-.1-.14-.04-.06-.1-.12-.14-.18,0,0-.02-.02-.04-.04h0s-.03-.02-.03-.03h0v-.02s-.09-.07-.13-.1c-.12-.08-.23-.17-.37-.24l-.03-.02v.02c-.06-.02-.27-.13-.3-.14-.4-.18-.51-.2-.97-.29h-.04s.08,0,.13-.02c.7-.09,1.09-.72.92-1.19-.2-.54-.9-.75-1.6-.67.18-.03-.25,0-.24,0h-.37c-.1,0-.18,0-.28-.02.17-.07.38-.11.58-.11,2.51.02,5.18,1.15,5.69,3.07.47,1.77-.94,3.64-3.41,4.04-2.13.34-4.78.21-6.57-.78-1.86-1.03-2.73-2.86-1.27-4.35.67-.67,1.64-1.43,2.72-1.74.54-.16,1.14-.18,1.73-.17.17,0,.36.02.53.03-.43.15-.74.48-.74.86,0,.53.59.96,1.31.96.15,0,.33,0,.49.02h.02s.12.02.13.02c.08.02.15.02.23.04-.52.06-1.02.06-1.54.03-.22-.02-.45-.02-.67-.03h-.44c.06-.02-.22,0,0,0,0,0-.03,0-.05.02-.04.02-.17.06-.19.06h.02l-.02-.02Z"/>
      <path class="st13" d="M317.37,34.58c.75.73-.43,1.97-1.72,1.42-.07-.03-.14-.06-.22-.09,0,0-.02-.02-.03-.02-.89-.5-1.79-.98-2.69-1.45-.74-.39-.68-1.06-.26-1.48,1.49.2,2.96.7,4.33,1.29.2.1.4.22.59.33h0Z"/>
      <path class="st13" d="M317.07,58.29c.22.44.22.83,0,1.22q-.07.12,0,0h0l-.13.17s-.08.1-.13.15h0l-.05.05-.18.14s-.06.04-.08.06h0l-.02.02s-.12.06-.16.08c-.2.08-.22.09-.44.14-.71.14-1.52.15-2.3.11-.58-.03-1.43-.18-1.96-.41-.15-.06-.29-.12-.42-.2h0s-.02-.02-.04-.02c-.02-.02-.05-.03-.05-.04-.06-.05-.13-.09-.19-.14-.04-.03-.09-.06-.13-.1v-.02s-.06-.06-.07-.06c-.04-.06-.1-.11-.14-.16,0-.02-.06-.11-.1-.15v-.02h0c-.04-.08-.07-.15-.09-.24v-.2s.04-.14.06-.21c.02-.02.04-.06.04-.07.07-.09.14-.18.22-.26,0-.02.03-.03.05-.05.08-.07.15-.14.24-.2.15-.11.31-.22.47-.34.17-.11.34-.24.53-.35h0s.03-.02.05-.02.15-.05.19-.06c.03,0,.04,0,.05-.02h.44c.22,0,.44.02.67.03.52.03,1.02.02,1.54-.03h.04c.45.09.57.11.97.29.03.02.23.11.31.14h.02c.13.08.25.16.37.24.04.03.08.06.13.1v.02s.03.02.04.02h0s.04.04.04.05c.04.06.1.11.14.18,0,0,.06.08.1.14h-.04v.02h0Z"/>
      <path class="st13" d="M316.97,34.33c.16.07.3.16.4.25-.19-.11-.4-.22-.59-.33.06.02.13.05.19.08h0Z"/>
      <path class="st13" d="M316.76,57.9s0,.02.03.02l-.04-.02h.01Z"/>
      <path class="st13" d="M316.54,60.05l-.04.02h0s.03-.02.04-.02Z"/>
      <path class="st13" d="M314.36,55.23c.7-.08,1.39.14,1.6.67.17.47-.22,1.1-.92,1.19-.04,0-.09.02-.13.02-.08-.02-.15-.02-.23-.04,0,0-.09,0-.13-.02h.05-.07c-.16-.02-.34-.02-.49-.02-.72,0-1.31-.44-1.31-.96,0-.37.31-.7.74-.86.1,0,.18,0,.28.02h.37s.43-.03.24,0h0Z"/>
      <path class="st13" d="M314.04,32.77c.92.49,1.83.97,2.73,1.48-1.36-.59-2.83-1.09-4.33-1.29.34-.35.96-.52,1.59-.18h.01,0Z"/>
      <path class="st13" d="M314.61,57.05h-.07.07Z"/>
      <path class="st13" d="M301.23,30.06s-.08,0-.19-.02c-.07-.02-.13-.02-.18-.04h.75c1.22.02,1.56-1,1.01-1.56.78.38,1.25,1.06,1.21,1.8-.05,1.02-1.12,1.73-2.24,2.2-1.16.47-2.85.82-3.47,1.78-.5.76.69,1.25,1.53,1.45,1.37.34,2.9.23,4.26-.11,1.56-.38,2.6-1.24,3.94-1.91,1.49-.75,3.08-.88,4.62-.67-.42.42-.47,1.09.26,1.48.9.47,1.8.96,2.69,1.45-1.34-.59-2.94-1.24-4.54-1.11-1.48.12-2.53,1.03-3.67,1.65-2.35,1.25-5.76,1.76-8.53,1.02-2.49-.67-4.32-2.51-2.7-4.38.77-.91,2.06-1.51,3.35-1.96.52-.18,1.35-.38,1.71-.74.12-.11.19-.14.17-.28,0-.02.03-.02.04-.02h-.02v-.03h0Z"/>
      <path class="st13" d="M312.28,57.1c-.22,0,.06-.02,0,0h0Z"/>
      <path class="st13" d="M309.95-26.26c1.21-.02,1.56.98,1.03,1.55-.09.02-.17.02-.26.03-1.32.14-2.03-1.01-1.44-1.57h.68-.01,0Z"/>
      <path class="st13" d="M286.05,3.96c-.14,0-.55-.3-.61-.34-3.13-1.73-6.77-3.03-10.47-3.94-3.89-.96-7.97-1.52-12.08-1.65-4.44-.13-8.84.48-13.28.39-3.62-.07-7.49-.7-10.26-2.53-1.23-.8-2.63-2.13-2.11-3.41.5-1.26,2.53-1.59,4.04-1.76,9.08-1.04,18.27-1.52,27.46-1.45,4.68.04,9.35.22,14.01.54,2.31.16,7.87.68,8.3-1.85.49-2.79-4.57-4.59-6.9-6.1-1.34-.86-2.73-1.97-2.81-3.34-.07-1.28.98-2.4,2.3-3.15,3.27-1.83,8.08-1.43,11.94-1.48,4.57-.05,9.13-.1,13.69-.15-.59.56.13,1.71,1.44,1.57.09,0,.17-.02.26-.03-.2.22-.54.38-1.03.38-2.24.02-4.5.05-6.74.08-4.44.05-8.93-.03-13.36.18-1.82.08-3.89.32-5.19,1.35-1.37,1.1-.28,2.12.94,2.97,2.66,1.84,6.23,3.06,7.62,5.72,1.28,2.44-.39,4.79-3.72,5.58-3.46.81-7.46.15-10.99-.04-4.46-.22-8.93-.32-13.39-.28-4.47.04-8.93.21-13.38.51-2.19.15-4.36.33-6.54.54-1.21.11-2.43.24-3.64.38-.33.04-1.68.13-1.8.41-.15.39.98,1.16,1.33,1.4.58.39,1.24.7,1.93.95,1.57.59,3.37.91,5.13,1.03,4.3.28,8.58-.34,12.89-.35,7.73-.02,15.56,1.42,22.28,4.24,2.1.88,8,3.25,4.13,5.26-1.56.8-3.69,1.19-5.47,1.62-2,.5-4.03.93-6.06,1.31-2.12.39-4.27.71-6.42.98-1.04.13-2.1.22-3.15.34-.71.08-1.65.17-2.09.65-.75.83.34,1.86,1.27,2.28,1.61.73,3.62.87,5.47,1.03,2.25.18,4.51.36,6.76.54,1.69.15,3.45.34,4.64,1.34,2.2,1.84.31,4.22.56,6.33.28,2.41,3.63,4.16,6.46,4.92,3.89,1.06,8.1,1.09,12.19,1.15.46,0,.79.15,1.01.37-.25-.12-.54-.21-.86-.26-1.58-.25-2.28,1.45-.88,1.82-1.86-.02-3.71-.06-5.56-.2-3.97-.29-7.91-.99-11.1-2.85-2.67-1.57-4.23-3.78-3.77-6.33.18-.99.79-2.3.31-3.28-.61-1.22-3.27-1.09-4.69-1.21-2.23-.18-4.46-.34-6.68-.55-1.9-.19-3.86-.47-5.47-1.28-2.54-1.27-3.66-4.26-.7-5.7,1.63-.79,3.92-.76,5.79-.99,2.22-.28,4.42-.62,6.61-1.03,2.1-.39,4.19-.85,6.24-1.37,1.14-.29,2.31-.57,3.42-.93.11-.03.64-.18.79-.31v-.03h-.01ZM286.06,3.95s.04-.02.04-.04c0-.01-.01,0-.04.04Z"/>
      <path class="st13" d="M310.76,59.5v.02l-.02-.02h.02Z"/>
      <path class="st13" d="M310.46,59.13v-.02.02Z"/>
      <path class="st13" d="M302.61,28.44c.56.56.22,1.58-1.01,1.56h-.75c-1.4-.37-.7-2.07.88-1.82.32.05.61.14.86.26h.02Z"/>
      <path class="st13" d="M290.03,39.77c-.2.02-.39.05-.5.07-.44.09-.88.18-1.33.27-.88.18-1.77.36-2.66.54-1.78.37-3.57.73-5.36,1.1-1.62.33-3.27.64-4.73,1.27-.2.08-.4.18-.6.28-.54-.47-1.59-.58-2.04.12-.96,1.48-1.79,3.2-.29,4.66.11.1.22.2.34.29-1.3-.53-2.26-1.45-2.46-2.61-.3-1.73,1.33-3.25,3.17-4.16,1.97-.99,4.38-1.4,6.65-1.87,2.49-.51,4.98-1.02,7.47-1.52,1.64-.34,5.45-1.37,5.53.86.03.83-.76,1.52-1.36,2.17-.67.7-1.35,1.41-2.07,2.09-2.83,2.66-6.53,4.94-11.1,5.7-1.98.33-4.33.47-5.85-.65.7.29,1.49.46,2.31.48,1.21.04,1.55-.94,1.03-1.52,1.55.03,3.27-.42,4.62-.89,3.06-1.07,5.48-2.85,7.46-4.83.53-.52,1.03-1.06,1.53-1.59.08-.08.15-.18.23-.27h.01ZM290.03,39.76c.35-.04.74-.1.9-.21h.09c.34,0,.19-.14-.44-.41l-.13.18c-.15.11-.3.28-.42.44h0Z"/>
      <path class="st13" d="M290.57,39.14c.63.27.77.41.44.41h-.09c-.16.11-.55.17-.9.21.13-.16.26-.34.42-.44l.13-.18h0Z"/>
      <path class="st13" d="M290.03,39.77c-.09.1-.15.19-.23.27-.49.54-1,1.07-1.53,1.59-1.99,1.98-4.41,3.76-7.46,4.83-1.34.47-3.08.92-4.62.89-.2-.23-.55-.4-1.03-.42-.22,0-.45-.04-.66-.1-.49-.65.12-1.76.55-2.43.27-.42.13-.82-.22-1.09.2-.1.4-.2.6-.28,1.46-.63,3.12-.94,4.73-1.27,1.79-.37,3.58-.73,5.36-1.1.89-.18,1.78-.36,2.66-.54.45-.09.89-.18,1.33-.27.13-.02.31-.05.5-.07h.02Z"/>
      <path class="st13" d="M286.06,3.95s.04-.02.04-.04c0,.02-.02.04-.04.04Z"/>
      <path class="st13" d="M276.18,47.34c.52.57.18,1.55-1.03,1.52-.82-.02-1.62-.19-2.31-.48-.13-.09-.23-.18-.34-.29-1.5-1.46-.67-3.18.29-4.66.45-.7,1.5-.59,2.04-.12-.93.47-1.8,1.16-1.86,2-.06.71.65,1.32,1.53,1.53.2.26.58.46,1.24.51.14.02.29.02.44.02h0v-.03h0Z"/>
      <path class="st13" d="M276.18,47.34c-.15,0-.3,0-.44-.02-.66-.05-1.04-.24-1.24-.51.21.06.43.09.66.1.47.02.82.18,1.03.42h-.01Z"/>
      <path class="st13" d="M274.84,43.3c.34.28.49.67.22,1.09-.44.67-1.04,1.78-.55,2.43-.88-.22-1.59-.82-1.53-1.53.06-.83.94-1.52,1.86-2h0Z"/>
    </g>
    <path class="st14" d="M281.67,61.65c-1.57-.09-3.16.07-4.66.46-.5.13-1.09.39-1.07.83,0,.2.15.39.31.53.78.68,2.04.74,3.15.61.86-.1,1.72-.28,2.47-.64s1.42-.89,1.77-1.55c.11-.21.19-.44.16-.67s-.2-.46-.45-.53c-.26-.08-.54,0-.8.09-1.03.34-2.07.68-3.1,1.03"/>
    <path class="st14" d="M494.62-21.59c.21.1.17.38,0,.51s-.42.17-.66.19c-2.03.21-4.88.94-6.83.58,1.36-1.38,5.61-2.18,7.48-1.28h.01,0Z"/>
    <path class="st14" d="M435.58-67.67c.74-.71,1.85-1.14,2.98-1.14.17,0,.36.02.48.12.17.16.09.4-.04.59-.48.68-1.38,1.06-2.21,1.44-.4.18-.82.38-1.18.62-.3.21-.58.67-.94.74-.39-.67.39-1.86.92-2.37h-.01Z"/>
  </g>
  <g>
    <g class="st11">
      <g class="st11">
        <g class="st11">
          <text class="st12" transform="translate(568.48 19.54)"><tspan x="0" y="0">KL K</tspan></text>
        </g>
      </g>
    </g>
    <g id="kuglepind4">
      <path class="st5" d="M637.85-18.39v.69h-3.35v-.71c0-1.05.65-1.9,1.46-1.9h.4c.82,0,1.48.85,1.48,1.91h0Z"/>
      <path class="st4" d="M638.4-17.48V17.34c0,.12-.09.22-.2.22h-4.03c-.11,0-.2-.1-.2-.22V-17.48c0-.12.09-.22.2-.22h4.03c.11,0,.2.1.2.22Z"/>
      <rect class="st7" x="633.97" y="-12" width="4.44" height="23.59"/>
      <path class="st5" d="M636.59-17.68h1.26V-7.49c0,.22-.18.4-.4.4h-.45c-.22,0-.4-.18-.4-.4v-10.19h0Z"/>
      <polygon class="st1" points="636.58 20.17 635.85 20.17 634.2 17.56 638.16 17.56 636.58 20.17"/>
      <path class="st3" d="M636.33,20.64h-.17c-.06,0-.11-.05-.11-.11l-.11-.36h.58l-.08.36c0,.06-.05.11-.11.11h0Z"/>
    </g>
  </g>
  <g class="st11">
    <g class="st11">
      <g class="st11">
        <text class="st10" transform="translate(145.99 278.42)"><tspan x="0" y="0">M</tspan></text>
      </g>
    </g>
  </g>
  <g>
    <path d="M308.36-213.15h2.78v10.4h.1c.57-.84,1.16-1.59,1.7-2.29l6.59-8.1h3.45l-7.8,9.17,8.42,12.4h-3.3l-7.09-10.58-2.07,2.36v8.21h-2.78v-21.57h0Z"/>
    <path d="M343.9-201.05c-.17-3-.36-6.64-.34-9.3h-.09c-.74,2.5-1.64,5.22-2.71,8.18l-3.81,10.46h-2.1l-3.51-10.27c-1.03-3.05-1.86-5.81-2.47-8.37h-.08c-.08,2.69-.22,6.28-.42,9.51l-.57,9.26h-2.65l1.5-21.57h3.56l3.67,10.44c.89,2.64,1.61,5.02,2.17,7.27h.08c.57-2.18,1.32-4.56,2.28-7.26l3.85-10.44h3.56l1.34,21.57h-2.74l-.52-9.47h0Z"/>
  </g>
  <g>
    <path class="st13" d="M76.58,25.82c0,4.6-2.96,6.43-5.69,6.43-3.18,0-5.56-2.31-5.56-6.26s2.49-6.41,5.74-6.41,5.52,2.46,5.52,6.24h0ZM68.33,25.92c0,2.25.92,4.15,2.65,4.15,1.63,0,2.58-1.91,2.58-4.18,0-1.87-.68-4.13-2.58-4.13s-2.65,2.21-2.65,4.16Z"/>
    <path class="st13" d="M78.96,23.39c0-1.4-.05-2.5-.1-3.56h2.58l.15,1.71h.06c.55-.95,1.78-1.96,3.58-1.96,2.09,0,3.96,1.43,3.96,4.97v7.45h-2.96v-7.12c0-1.59-.53-2.87-2.05-2.87-1.06,0-1.83.76-2.12,1.71-.09.26-.14.64-.14,1.02v7.27h-2.96v-8.61h0Z"/>
    <path class="st13" d="M92.04,29.26c.61.38,1.79.81,2.8.81,1.23,0,1.83-.55,1.83-1.37s-.46-1.25-1.84-1.83c-2.21-.89-3.1-2.15-3.09-3.53,0-2.13,1.7-3.76,4.35-3.76,1.23,0,2.28.32,2.96.69l-.59,2.1c-.5-.29-1.35-.65-2.3-.65-1.04,0-1.61.56-1.61,1.28s.5,1.11,1.93,1.73c2.04.84,3.01,1.99,3.02,3.7,0,2.3-1.73,3.79-4.67,3.79-1.32,0-2.59-.33-3.38-.81l.59-2.16h0Z"/>
    <path class="st13" d="M105.26,16.41v3.42h2.76v2.19h-2.76v5.65c0,1.49.45,2.13,1.48,2.13.46,0,.81-.05,1.08-.12l.06,2.26c-.44.16-1.18.28-2.09.28-1.05,0-1.94-.33-2.5-.93-.64-.67-.94-1.72-.94-3.38v-5.91h-1.65v-2.19h1.65v-2.7l2.91-.71h0Z"/>
    <path class="st13" d="M112.11,26.72c.07,2.36,1.64,3.26,3.44,3.26,1.26,0,2.19-.22,3.01-.52l.43,2.06c-.96.42-2.32.71-3.89.71-3.71,0-5.83-2.39-5.83-6.13s2-6.52,5.52-6.52,4.82,2.97,4.82,5.82c0,.61-.04,1.05-.1,1.33h-7.41,0ZM116.85,24.65c.02-1.38-.52-3.01-2.25-3.01s-2.38,1.71-2.49,3.01h4.74Z"/>
    <path class="st13" d="M121.93,23.6c0-1.48-.04-2.7-.1-3.77h2.56l.12,2.17h.08c.56-1.57,1.86-2.42,3.07-2.42.29,0,.46.01.68.06v2.83c-.23-.05-.47-.07-.8-.07-1.3,0-2.29.88-2.57,2.26-.06.28-.09.63-.09,1v6.35h-2.96v-8.4h.01Z"/>
  </g>
</svg>