<?xml version="1.0" encoding="UTF-8"?>
<svg id="Lag_1" data-name="Lag 1" xmlns="http://www.w3.org/2000/svg" viewBox="0 0 63.52 36.28">
  <defs>
    <style>
      .cls-1 {
        fill: #ccc;
      }

      .cls-1, .cls-2, .cls-3, .cls-4, .cls-5 {
        stroke: #000;
        stroke-miterlimit: 10;
        stroke-width: .3px;
      }

      .cls-2 {
        fill: #333;
      }

      .cls-3 {
        fill: #1b1464;
      }

      .cls-6 {
        fill: #74373b;
      }

      .cls-4 {
        fill: #2e3192;
      }

      .cls-5 {
        fill: #e6e6e6;
      }
    </style>
  </defs>
  <path class="cls-6" d="M5.61,21.83h0c5.72-5.35,17.6-14.13,21.05-17.65.58-.29,1.33-.45,2.09-.45l7.39-.07c.13,0,.2.09.11.14l-14.64,14c-.06.03-.06.08,0,.12l18.85,14.78c.09.05.01.14-.11.14h-6.25c-.58,0-1.13-.14-1.51-.39l-14.77-11.71s-.47-.43-.53-.4l-11.5,8.37s.02-1.46.02-1.43l-.09,5.77-.07-3.73-.04-7.49.21-17.66-.21,17.66h0,0Z"/>
  <path class="cls-6" d="M62.34,32l-1.47-.04c-.8,0-1.45-.37-1.44-.84l.31-20.76h-.21l-10.23,17.26c-.18.35-.74.6-1.38.6h-1.36c-.64,0-1.21-.24-1.39-.6l-10.57-17.29h-.21l.14,14.37c.07,2.33-1.64,1.13-2.52.55l-1.97-1.3c-.23-.15-.35-.35-.35-.55v-11.97c0-.22.15-.43.43-.59l4.56-4.3c.78-.45,2.1-.24,2.4.37l10.03,15.17h.21l7.78-14.57c.3-.62,1.28-1.05,2.39-1.05l4.6.04c.8,0,1.45.37,1.44.83l-.6,23.84q0,.45-.48.79h0l-.09.03Z"/>
  <g id="kuglepind">
    <path class="cls-4" d="M4.94,1.83v.61H.82v-.63C.82.9,1.63.15,2.63.15h.49c1.01,0,1.82.75,1.82,1.68h0Z"/>
    <path class="cls-3" d="M5.62,2.63v30.61c0,.1-.11.19-.25.19H.4c-.14,0-.25-.08-.25-.19V2.63c0-.1.11-.19.25-.19h4.97c.14,0,.25.08.25.19h0Z"/>
    <rect class="cls-5" x=".15" y="7.44" width="5.47" height="20.74"/>
    <path class="cls-4" d="M3.39,2.44h1.56v9.07c0,.13-.15.24-.34.24h-.88c-.19,0-.34-.11-.34-.24V2.44h0Z"/>
    <polygon class="cls-1" points="3.38 35.72 2.49 35.72 .45 33.43 5.32 33.43 3.38 35.72"/>
    <path class="cls-2" d="M3.06,36.13h-.21c-.08,0-.13-.04-.13-.1l-.13-.32h.71l-.09.32c0,.05-.06.1-.13.1h0Z"/>
  </g>
</svg>